<?xml version="1.0" encoding="UTF-8"?>
<svg id="Layer_2" data-name="Layer 2" xmlns="http://www.w3.org/2000/svg" viewBox="0 0 197.15 105.66">
  <defs>
    <style>
      .cls-1 {
        fill: #000104;
        stroke-width: 0px;
      }
    </style>
  </defs>
  <g id="Layer_1-2" data-name="Layer 1">
    <g>
      <path class="cls-1" d="m190.81,5.49c-4.23-3.66-9.75-5.49-16.58-5.49-8.13,0-14.67,2.24-19.63,6.71-4.96,4.47-8.9,9.8-11.82,15.97v12.32c.36-2.88,1.38-5.56,2.31-8.05,1.54-4.14,3.37-7.68,5.49-10.61,2.11-2.93,4.39-5.16,6.83-6.7,2.44-1.54,4.47-2.32,6.1-2.32,1.46,0,2.56.29,3.29.85.73.57,1.26,1.22,1.59,1.95.32.73.57,1.75.73,3.05,0,.16-.09.82-.24,1.95-.16,1.14-.37,2.4-.61,3.78-.24,1.38-.45,2.68-.61,3.9-.16,1.22-.24,2.07-.24,2.56,0,4.23,1.54,7.11,4.63,8.66,3.09,1.55,6.5,2.32,10.24,2.32,5.2,0,8.98-1.38,11.34-4.14,2.36-2.76,3.54-6.58,3.54-11.46,0-6.5-2.11-11.58-6.34-15.24"/>
      <path class="cls-1" d="m139.36,84.53V29.07C139.36,9.69,130.35,0,112.33,0c-3.83,0-7.25.51-10.28,1.56-3.02,1.04-5.64,2.44-7.86,4.2s-4.07,3.74-5.55,5.94c-1.49,2.22-2.65,4.49-3.53,6.83h-.37c-1.48-6.63-4.6-11.37-9.34-14.24C70.66,1.44,65.21,0,59.04,0,52.12,0,46.23,1.82,41.35,5.47c-4.87,3.65-8.6,9.36-11.19,17.17h-.37V2.15H0v2.72h14.24v80.41h15.93v-45.47c0-6.76.89-12.5,2.68-17.17,1.78-4.69,4-8.49,6.66-11.42,2.65-2.92,5.52-5.07,8.61-6.43,3.08-1.36,5.92-2.05,8.51-2.05,3.71,0,6.67,1.36,8.89,4.09,2.22,2.73,3.33,6.96,3.33,12.68l-.1,66.34h30.26v-2.73h-14.25v-49.76c0-5.2.78-9.76,2.31-13.66,1.55-3.9,3.55-7.09,6.02-9.56,2.47-2.47,5.24-4.32,8.32-5.56,3.09-1.23,6.17-1.85,9.26-1.85,3.95,0,7.07,1.24,9.35,3.71,2.27,2.47,3.42,5.92,3.42,10.34l.07,68.73c0,11.12,9.02,20.14,20.14,20.14,8.2,0,15.26-4.9,18.38-11.94-2.39,2.48-5.76,4.02-9.47,4.02-7.29,0-13.21-5.92-13.21-13.21"/>
    </g>
  </g>
</svg>